# This file uses centimeters as units for non-parametric coordinates.

mtllib test.mtl
g default
v -5.989999 -0.000000 8.979999
v -4.791999 -0.000000 8.979999
v -3.594000 -0.000000 8.979999
v -2.396000 -0.000000 8.979999
v -1.198000 -0.000000 8.979999
v -5.989999 -0.000000 7.697142
v -4.791999 -0.000000 7.697142
v -3.594000 -0.000000 7.697142
v -2.396000 -0.000000 7.697142
v -1.198000 -0.000000 7.697142
v 0.000000 -0.000000 7.697142
v -5.989999 -0.000000 6.414286
v -4.791999 -0.000000 6.414286
v -3.594000 -0.000000 6.414286
v -2.396000 -0.000000 6.414286
v -1.198000 -0.000000 6.414286
v 0.000000 -0.000000 6.414286
v 2.396000 -0.000000 6.414286
v 3.594000 -0.000000 6.414286
v 4.791999 -0.000000 6.414286
v -2.396000 -0.000000 5.131428
v -1.198000 -0.000000 5.131428
v 0.000000 -0.000000 5.131428
v 1.198000 -0.000000 5.131428
v 2.396000 -0.000000 5.131428
v 3.594000 -0.000000 5.131428
v 4.791999 -0.000000 5.131428
v -2.396000 -0.000000 3.848571
v -1.198000 -0.000000 3.848571
v 0.000000 -0.000000 3.848571
v 1.198000 -0.000000 3.848571
v 2.396000 -0.000000 3.848571
v 3.594000 -0.000000 3.848571
v 4.791999 -0.000000 3.848571
v -3.594000 -0.000000 2.565714
v -2.396000 -0.000000 2.565714
v -1.198000 -0.000000 2.565714
v 0.000000 -0.000000 2.565714
v 1.198000 -0.000000 2.565714
v 2.396000 -0.000000 2.565714
v 3.594000 -0.000000 2.565714
v 4.791999 -0.000000 2.565714
v -4.791999 -0.000000 1.282857
v -3.594000 -0.000000 1.282857
v -2.396000 -0.000000 1.282857
v -1.198000 -0.000000 1.282857
v 0.000000 -0.000000 1.282857
v 1.198000 -0.000000 1.282857
v 2.396000 -0.000000 1.282857
v 3.594000 -0.000000 1.282857
v 4.791999 -0.000000 1.282857
v 5.989999 -0.000000 1.282857
v -4.791999 0.000000 0.000000
v -3.594000 0.000000 0.000000
v -2.396000 0.000000 0.000000
v -1.198000 0.000000 0.000000
v 0.000000 0.000000 0.000000
v 1.198000 0.000000 0.000000
v 2.396000 0.000000 0.000000
v 3.594000 0.000000 0.000000
v 4.791999 0.000000 0.000000
v 5.989999 0.000000 0.000000
v -4.791999 0.000000 -1.282858
v -3.594000 0.000000 -1.282858
v -2.396000 0.000000 -1.282858
v -1.198000 0.000000 -1.282858
v 0.000000 0.000000 -1.282858
v 1.198000 0.000000 -1.282858
v 2.396000 0.000000 -1.282858
v 3.594000 0.000000 -1.282858
v 4.791999 0.000000 -1.282858
v 5.989999 0.000000 -1.282858
v -4.791999 0.000000 -2.565715
v -3.594000 0.000000 -2.565715
v -2.396000 0.000000 -2.565715
v -1.198000 0.000000 -2.565715
v 0.000000 0.000000 -2.565715
v 1.198000 0.000000 -2.565715
v 2.396000 0.000000 -2.565715
v 3.594000 0.000000 -2.565715
v 4.791999 0.000000 -2.565715
v 5.989999 0.000000 -2.565715
v -3.594000 0.000000 -3.848571
v -2.396000 0.000000 -3.848571
v -1.198000 0.000000 -3.848571
v 0.000000 0.000000 -3.848571
v 1.198000 0.000000 -3.848571
v 2.396000 0.000000 -3.848571
v 3.594000 0.000000 -3.848571
v -3.594000 0.000000 -5.131429
v -2.396000 0.000000 -5.131429
v -1.198000 0.000000 -5.131429
v 0.000000 0.000000 -5.131429
v 1.198000 0.000000 -5.131429
v 2.396000 0.000000 -5.131429
v 3.594000 0.000000 -5.131429
v -3.594000 0.000000 -6.414286
v -2.396000 0.000000 -6.414286
v -1.198000 0.000000 -6.414286
v 0.000000 0.000000 -6.414286
v 1.198000 0.000000 -6.414286
v 2.394891 -0.000000 -6.414286
v 3.595764 -0.000000 -6.414807
v -3.594000 0.000000 -7.697142
v -2.396000 0.000000 -7.697142
v -1.198000 0.000000 -7.697142
v 0.000000 0.000000 -7.694036
v -1.198000 0.000000 -8.979999
v 0.001672 0.000000 -8.981903
v 1.198000 0.000000 -7.690929
v 1.199672 0.000000 -8.982575
v 2.393784 -0.000000 -7.690929
v 2.393784 -0.000000 -8.984449
v 3.596975 -0.000000 -7.691451
v 3.597531 -0.000000 -8.984449
vt 0.000000 0.000000
vt 0.100000 0.000000
vt 0.200000 0.000000
vt 0.300000 0.000000
vt 0.400000 0.000000
vt 0.000000 0.071429
vt 0.100000 0.071429
vt 0.200000 0.071429
vt 0.300000 0.071429
vt 0.400000 0.071429
vt 0.500000 0.071429
vt 0.000000 0.142857
vt 0.100000 0.142857
vt 0.200000 0.142857
vt 0.300000 0.142857
vt 0.400000 0.142857
vt 0.500000 0.142857
vt 0.700000 0.142857
vt 0.800000 0.142857
vt 0.900000 0.142857
vt 0.300000 0.214286
vt 0.400000 0.214286
vt 0.500000 0.214286
vt 0.600000 0.214286
vt 0.700000 0.214286
vt 0.800000 0.214286
vt 0.900000 0.214286
vt 0.300000 0.285714
vt 0.400000 0.285714
vt 0.500000 0.285714
vt 0.600000 0.285714
vt 0.700000 0.285714
vt 0.800000 0.285714
vt 0.900000 0.285714
vt 0.200000 0.357143
vt 0.300000 0.357143
vt 0.400000 0.357143
vt 0.500000 0.357143
vt 0.600000 0.357143
vt 0.700000 0.357143
vt 0.800000 0.357143
vt 0.900000 0.357143
vt 0.100000 0.428571
vt 0.200000 0.428571
vt 0.300000 0.428571
vt 0.400000 0.428571
vt 0.500000 0.428571
vt 0.600000 0.428571
vt 0.700000 0.428571
vt 0.800000 0.428571
vt 0.900000 0.428571
vt 1.000000 0.428571
vt 0.100000 0.500000
vt 0.200000 0.500000
vt 0.300000 0.500000
vt 0.400000 0.500000
vt 0.500000 0.500000
vt 0.600000 0.500000
vt 0.700000 0.500000
vt 0.800000 0.500000
vt 0.900000 0.500000
vt 1.000000 0.500000
vt 0.100000 0.571429
vt 0.200000 0.571429
vt 0.300000 0.571429
vt 0.400000 0.571429
vt 0.500000 0.571429
vt 0.600000 0.571429
vt 0.700000 0.571429
vt 0.800000 0.571429
vt 0.900000 0.571429
vt 1.000000 0.571429
vt 0.100000 0.642857
vt 0.200000 0.642857
vt 0.300000 0.642857
vt 0.400000 0.642857
vt 0.500000 0.642857
vt 0.600000 0.642857
vt 0.700000 0.642857
vt 0.800000 0.642857
vt 0.900000 0.642857
vt 1.000000 0.642857
vt 0.200000 0.714286
vt 0.300000 0.714286
vt 0.400000 0.714286
vt 0.500000 0.714286
vt 0.600000 0.714286
vt 0.700000 0.714286
vt 0.800000 0.714286
vt 0.200000 0.785714
vt 0.300000 0.785714
vt 0.400000 0.785714
vt 0.500000 0.785714
vt 0.600000 0.785714
vt 0.700000 0.785714
vt 0.800000 0.785714
vt 0.200000 0.857143
vt 0.300000 0.857143
vt 0.400000 0.857143
vt 0.500000 0.857143
vt 0.600000 0.857143
vt 0.700000 0.857143
vt 0.800000 0.857143
vt 0.200000 0.928571
vt 0.300000 0.928571
vt 0.400000 0.928571
vt 0.500000 0.928571
vt 0.400000 1.000000
vt 0.500000 1.000000
vt 0.000000 0.000000
vt 1.000000 0.000000
vt 1.000000 1.000000
vt 0.000000 1.000000
vt 0.000000 0.000000
vt 1.000000 0.000000
vt 1.000000 1.000000
vt 0.000000 1.000000
vt 0.000000 0.000000
vt 1.000000 0.000000
vt 1.000000 1.000000
vt 0.000000 1.000000
vt 0.000000 0.000000
vt 1.000000 0.000000
vt 1.000000 1.000000
vt 0.000000 1.000000
vt 0.000000 0.000000
vt 1.000000 0.000000
vt 1.000000 1.000000
vt 0.000000 1.000000
vt 0.000000 0.000000
vt 1.000000 0.000000
vt 1.000000 1.000000
vt 0.000000 1.000000
vn 0.000000 1.000000 0.000000
vn 0.000000 1.000000 0.000000
vn 0.000000 1.000000 0.000000
vn 0.000000 1.000000 0.000000
vn 0.000000 1.000000 0.000000
vn 0.000000 1.000000 0.000000
vn 0.000000 1.000000 0.000000
vn 0.000000 1.000000 0.000000
vn 0.000000 1.000000 0.000000
vn 0.000000 1.000000 0.000000
vn 0.000000 1.000000 0.000000
vn 0.000000 1.000000 0.000000
vn 0.000000 1.000000 0.000000
vn 0.000000 1.000000 0.000000
vn 0.000000 1.000000 0.000000
vn 0.000000 1.000000 0.000000
vn 0.000000 1.000000 0.000000
vn 0.000000 1.000000 0.000000
vn 0.000000 1.000000 0.000000
vn 0.000000 1.000000 0.000000
vn 0.000000 1.000000 0.000000
vn 0.000000 1.000000 0.000000
vn 0.000000 1.000000 0.000000
vn 0.000000 1.000000 0.000000
vn 0.000000 1.000000 0.000000
vn 0.000000 1.000000 0.000000
vn 0.000000 1.000000 0.000000
vn 0.000000 1.000000 0.000000
vn 0.000000 1.000000 0.000000
vn 0.000000 1.000000 0.000000
vn 0.000000 1.000000 0.000000
vn 0.000000 1.000000 0.000000
vn 0.000000 1.000000 0.000000
vn 0.000000 1.000000 0.000000
vn 0.000000 1.000000 0.000000
vn 0.000000 1.000000 0.000000
vn 0.000000 1.000000 0.000000
vn 0.000000 1.000000 0.000000
vn 0.000000 1.000000 0.000000
vn 0.000000 1.000000 0.000000
vn 0.000000 1.000000 0.000000
vn 0.000000 1.000000 0.000000
vn 0.000000 1.000000 0.000000
vn 0.000000 1.000000 0.000000
vn 0.000000 1.000000 0.000000
vn 0.000000 1.000000 0.000000
vn 0.000000 1.000000 0.000000
vn 0.000000 1.000000 0.000000
vn 0.000000 1.000000 0.000000
vn 0.000000 1.000000 0.000000
vn 0.000000 1.000000 0.000000
vn 0.000000 1.000000 0.000000
vn 0.000000 1.000000 0.000000
vn 0.000000 1.000000 0.000000
vn 0.000000 1.000000 0.000000
vn 0.000000 1.000000 0.000000
vn 0.000000 1.000000 0.000000
vn 0.000000 1.000000 0.000000
vn 0.000000 1.000000 0.000000
vn 0.000000 1.000000 0.000000
vn 0.000000 1.000000 0.000000
vn 0.000000 1.000000 0.000000
vn 0.000000 1.000000 0.000000
vn 0.000000 1.000000 0.000000
vn 0.000000 1.000000 0.000000
vn 0.000000 1.000000 0.000000
vn 0.000000 1.000000 0.000000
vn 0.000000 1.000000 0.000000
vn 0.000000 1.000000 0.000000
vn 0.000000 1.000000 0.000000
vn 0.000000 1.000000 0.000000
vn 0.000000 1.000000 0.000000
vn 0.000000 1.000000 0.000000
vn 0.000000 1.000000 0.000000
vn 0.000000 1.000000 0.000000
vn 0.000000 1.000000 0.000000
vn 0.000000 1.000000 0.000000
vn 0.000000 1.000000 0.000000
vn 0.000000 1.000000 0.000000
vn 0.000000 1.000000 0.000000
vn 0.000000 1.000000 0.000000
vn 0.000000 1.000000 0.000000
vn 0.000000 1.000000 0.000000
vn 0.000000 1.000000 0.000000
vn 0.000000 1.000000 0.000000
vn 0.000000 1.000000 0.000000
vn 0.000000 1.000000 0.000000
vn 0.000000 1.000000 0.000000
vn 0.000000 1.000000 0.000000
vn 0.000000 1.000000 0.000000
vn 0.000000 1.000000 0.000000
vn 0.000000 1.000000 0.000000
vn 0.000000 1.000000 0.000000
vn 0.000000 1.000000 -0.000000
vn 0.000000 1.000000 0.000000
vn 0.000000 1.000000 -0.000000
vn 0.000000 1.000000 -0.000000
vn 0.000000 1.000000 0.000000
vn 0.000000 1.000000 0.000000
vn 0.000000 1.000000 0.000000
vn 0.000000 1.000000 -0.000000
vn 0.000000 1.000000 -0.000000
vn 0.000000 1.000000 -0.000000
vn 0.000000 1.000000 0.000000
vn 0.000000 1.000000 0.000000
vn 0.000000 1.000000 0.000000
vn 0.000000 1.000000 0.000000
vn 0.000000 1.000000 0.000000
vn 0.000000 1.000000 0.000000
vn 0.000000 1.000000 0.000000
vn 0.000000 1.000000 0.000000
vn 0.000000 1.000000 0.000000
vn 0.000000 1.000000 0.000000
vn 0.000000 1.000000 0.000000
vn 0.000000 1.000000 0.000000
vn 0.000000 1.000000 0.000000
vn 0.000000 1.000000 0.000000
vn 0.000000 1.000000 0.000000
vn 0.000000 1.000000 -0.000000
vn 0.000000 1.000000 0.000000
vn 0.000000 1.000000 -0.000000
vn 0.000000 1.000000 -0.000000
vn 0.000000 1.000000 -0.000000
vn 0.000000 1.000000 0.000000
vn 0.000000 1.000000 0.000000
vn 0.000000 1.000000 -0.000000
vn 0.000000 1.000000 -0.000000
vn 0.000000 1.000000 -0.000000
vn 0.000000 1.000000 0.000000
vn 0.000000 1.000000 0.000000
s 1
g pPlane1
usemtl initialShadingGroup
f 1/1/1 2/2/2 7/7/3 6/6/4
f 2/2/2 3/3/5 8/8/6 7/7/3
f 3/3/5 4/4/7 9/9/8 8/8/6
f 4/4/7 5/5/9 10/10/10 9/9/8
f 6/6/4 7/7/3 13/13/11 12/12/12
f 7/7/3 8/8/6 14/14/13 13/13/11
f 8/8/6 9/9/8 15/15/14 14/14/13
f 9/9/8 10/10/10 16/16/15 15/15/14
f 10/10/10 11/11/16 17/17/17 16/16/15
f 15/15/14 16/16/15 22/22/18 21/21/19
f 16/16/15 17/17/17 23/23/20 22/22/18
f 18/18/21 19/19/22 26/26/23 25/25/24
f 19/19/22 20/20/25 27/27/26 26/26/23
f 21/21/19 22/22/18 29/29/27 28/28/28
f 22/22/18 23/23/20 30/30/29 29/29/27
f 24/24/30 25/25/24 32/32/31 31/31/32
f 25/25/24 26/26/23 33/33/33 32/32/31
f 26/26/23 27/27/26 34/34/34 33/33/33
f 28/28/28 29/29/27 37/37/35 36/36/36
f 29/29/27 30/30/29 38/38/37 37/37/35
f 33/33/33 34/34/34 42/42/38 41/41/39
f 35/35/40 36/36/36 45/45/41 44/44/42
f 36/36/36 37/37/35 46/46/43 45/45/41
f 38/38/44 39/39/45 48/48/46 47/47/47
f 39/39/45 40/40/48 49/49/49 48/48/46
f 40/40/48 41/41/39 50/50/50 49/49/49
f 41/41/39 42/42/38 51/51/51 50/50/50
f 43/43/52 44/44/42 54/54/53 53/53/54
f 44/44/42 45/45/41 55/55/55 54/54/53
f 45/45/41 46/46/43 56/56/56 55/55/55
f 47/47/47 48/48/46 58/58/57 57/57/58
f 48/48/46 49/49/49 59/59/59 58/58/57
f 49/49/49 50/50/50 60/60/60 59/59/59
f 50/50/50 51/51/51 61/61/61 60/60/60
f 51/51/51 52/52/62 62/62/63 61/61/61
f 53/53/54 54/54/53 64/64/64 63/63/65
f 55/55/55 56/56/56 66/66/66 65/65/67
f 56/56/56 57/57/58 67/67/68 66/66/66
f 57/57/58 58/58/57 68/68/69 67/67/68
f 58/58/57 59/59/59 69/69/70 68/68/69
f 59/59/59 60/60/60 70/70/71 69/69/70
f 60/60/60 61/61/61 71/71/72 70/70/71
f 61/61/61 62/62/63 72/72/73 71/71/72
f 63/63/65 64/64/64 74/74/74 73/73/75
f 64/64/64 65/65/67 75/75/76 74/74/74
f 65/65/67 66/66/66 76/76/77 75/75/76
f 66/66/66 67/67/68 77/77/78 76/76/77
f 67/67/68 68/68/69 78/78/79 77/77/78
f 68/68/69 69/69/70 79/79/80 78/78/79
f 69/69/70 70/70/71 80/80/81 79/79/80
f 70/70/71 71/71/72 81/81/82 80/80/81
f 71/71/72 72/72/73 82/82/83 81/81/82
f 74/74/74 75/75/76 84/84/84 83/83/85
f 75/75/76 76/76/77 85/85/86 84/84/84
f 76/76/77 77/77/78 86/86/87 85/85/86
f 77/77/78 78/78/79 87/87/88 86/86/87
f 78/78/79 79/79/80 88/88/89 87/87/88
f 79/79/80 80/80/81 89/89/90 88/88/89
f 83/83/85 84/84/84 91/91/91 90/90/92
f 84/84/84 85/85/86 92/92/93 91/91/91
f 86/86/87 87/87/88 94/94/94 93/93/95
f 87/87/88 88/88/89 95/95/96 94/94/94
f 88/88/89 89/89/90 96/96/97 95/95/96
f 91/91/91 92/92/93 99/99/98 98/98/99
f 92/92/93 93/93/95 100/100/100 99/99/98
f 93/93/95 94/94/94 101/101/101 100/100/100
f 94/94/94 95/95/96 102/102/102 101/101/101
f 95/95/96 96/96/97 103/103/103 102/102/102
f 97/97/104 98/98/99 105/105/105 104/104/106
f 98/98/99 99/99/98 106/106/107 105/105/105
f 99/99/98 100/100/100 107/107/108 106/106/107
f 106/106/107 107/107/108 109/109/109 108/108/110
s off
f 55/55/111 65/65/112 64/64/113 54/54/114
f 86/86/115 93/93/116 92/92/117 85/85/118
s 1
f 100/110/100 101/111/101 110/112/119 107/113/120
f 107/114/120 110/115/119 111/116/121 109/117/122
f 110/118/119 101/119/101 102/120/123 112/121/124
f 110/122/119 112/123/124 113/124/125 111/125/126
f 112/126/124 102/127/123 103/128/127 114/129/128
f 113/130/125 112/131/124 114/132/129 115/133/130
